<svg width="171" height="188" viewBox="0 0 171 188" fill="none" xmlns="http://www.w3.org/2000/svg">
<path d="M0 9.28125L8.438 180.308L160.386 187.649L170.057 19.1233L0 9.28125Z" fill="#F29BBE"/>
<path d="M20.1104 149.332L156.31 158.45L169.987 136.795L32.0773 141.923L20.1104 149.332Z" fill="white"/>
<path d="M138.674 132.777C138.674 132.777 168.62 121.885 169.987 101.713C171.354 81.5414 141.497 35.1484 141.497 35.1484C141.497 35.1484 148.759 73.8774 145.936 90.4164C143.113 106.955 138.674 132.777 138.674 132.777Z" fill="white"/>
<path d="M79.1798 132.777C79.1798 132.777 133.922 117.963 136.416 90.53C138.91 63.097 84.3378 0 84.3378 0C84.3378 0 97.6098 52.673 92.4478 75.168C87.2858 97.663 79.1758 132.777 79.1758 132.777" fill="white"/>
</svg>
