<svg width="502" height="244" viewBox="0 0 502 244" fill="none" xmlns="http://www.w3.org/2000/svg">
<g clip-path="url(#clip0_281_15)">
<path d="M186.632 5.00391L179.732 100.689H233.161L233.934 83.1889L203.811 87.1849L202.791 67.5979L226.533 66.6109L229.02 51.2569L207.465 52.1569L207.024 22.9319L239.524 22.8519L238.501 5.00391H186.632Z" fill="#161615"/>
<path d="M255.697 5.00391L257.055 24.8039L287.689 18.7299L290.795 78.4299L275.79 90.7909L261.41 89.7529L264.685 67.5529L247.975 64.2039L246.397 108.032L290.597 106.196L315.985 84.2689L307.722 5.00391H255.697Z" fill="#161615"/>
<path d="M328.786 5.00391L331.449 60.1839L381.385 60.8899L382.196 77.9239L332.624 84.2589L330.477 100.689H409.324L399.982 42.1169L359.089 41.3319L357.936 19.1319L397.8 17.6319L394.895 5.00391H328.786Z" fill="#161615"/>
<path d="M93.477 136.666L84.994 205.414L83 239.742H105L106.718 206.442L136.056 207.827L137.264 187.353L108.413 185.986L110.833 154.25L154.061 151.25L152.154 136.666H93.477Z" fill="#161615"/>
<path d="M172.248 239.742L166.056 136.666H219.466L220.12 155.735L190.027 151.579L191.738 171.293L212.605 172.278L215.88 193.436L189.667 185.488L192.787 216.83L225.287 217.093L224.127 239.742H172.248Z" fill="#161615"/>
<path d="M246.798 239.742H310.882L313.906 182.063L262.651 176.451L263.57 160.889L315.24 159.461L319.491 136.666H239.653L243.707 193.966L285.78 191.975L284.113 220.22L243.166 218.52L246.798 239.742Z" fill="#161615"/>
<path d="M335.233 136.666L330.319 163.378L370.464 165.427L341.693 239.742H380.676L390.108 165.729L390.478 159.469L417.049 160.723L415.303 136.666H335.233Z" fill="#161615"/>
<path d="M110.161 35.2859L117.677 22.6689L141.712 21.6689L142.45 35.8689L110.161 35.2859ZM164.968 5.00391L89.5675 6.63591L87.9355 100.689H117.283L114.517 51.8499L139.252 100.689L167.58 89.0039L137.769 48.3449L155.483 47.6039L166.912 39.4429L164.968 5.00391Z" fill="#161615"/>
<path d="M422.296 5.57227L417.054 23.2353H425.601L428.108 5.57227H422.296Z" fill="#161615"/>
<path d="M434.005 48.0246V41.7576L449.047 27.6576C450.339 26.4056 451.427 25.2722 452.31 24.2576C453.117 23.3568 453.798 22.3502 454.333 21.2656C454.803 20.2731 455.042 19.1874 455.033 18.0896C455.066 16.9382 454.77 15.8014 454.179 14.8126C453.613 13.9045 452.804 13.174 451.842 12.7046C450.786 12.1953 449.625 11.9415 448.452 11.9636C447.254 11.9378 446.069 12.2129 445.004 12.7636C444.034 13.2782 443.24 14.072 442.725 15.0426C442.166 16.1443 441.891 17.3684 441.925 18.6036H433.605C433.546 16.0745 434.205 13.5805 435.505 11.4106C436.771 9.36564 438.595 7.72442 440.761 6.67956C443.178 5.52792 445.83 4.95447 448.507 5.00456C451.216 4.94363 453.903 5.49393 456.37 6.61456C458.487 7.58202 460.296 9.11453 461.598 11.0436C462.857 12.9745 463.507 15.2389 463.464 17.5436C463.459 19.1461 463.145 20.7327 462.54 22.2166C461.706 24.097 460.591 25.8402 459.234 27.3866C457.142 29.8162 454.891 32.1048 452.496 34.2376L446.086 40.5626V40.8766H464.035V48.0246H434.005Z" fill="#161615"/>
<path d="M486.712 48.5952C484.585 48.5986 482.474 48.2321 480.473 47.5122C478.432 46.7734 476.585 45.5804 475.073 44.0232C473.354 42.197 472.065 40.0106 471.298 37.6232C470.288 34.447 469.815 31.1249 469.898 27.7932C469.855 24.5625 470.259 21.3413 471.098 18.2212C471.787 15.633 472.956 13.1971 474.544 11.0402C475.966 9.13166 477.822 7.58914 479.959 6.54019C482.166 5.49391 484.583 4.96872 487.025 5.00519C489.589 4.95377 492.128 5.51498 494.432 6.64219C496.499 7.66799 498.284 9.18366 499.632 11.0572C500.953 12.9116 501.773 15.0759 502.011 17.3402H493.465C493.162 15.9319 492.371 14.676 491.232 13.7942C490.017 12.9021 488.538 12.4443 487.032 12.4942C485.311 12.4445 483.632 13.0325 482.318 14.1452C480.935 15.4067 479.933 17.0303 479.425 18.8322C478.735 21.1762 478.408 23.6122 478.457 26.0552H478.741C479.379 24.8303 480.255 23.7454 481.318 22.8642C482.41 21.9613 483.662 21.2705 485.008 20.8272C486.422 20.3567 487.904 20.1203 489.395 20.1272C491.75 20.087 494.071 20.6934 496.105 21.8802C498.07 23.0467 499.68 24.726 500.763 26.7382C501.931 28.9176 502.52 31.3601 502.474 33.8322C502.523 36.5118 501.833 39.1531 500.479 41.4662C499.153 43.6851 497.24 45.4944 494.951 46.6942C492.408 48.0045 489.578 48.6577 486.718 48.5942M486.66 41.6942C487.984 41.7167 489.287 41.3663 490.421 40.6832C491.517 40.0141 492.42 39.0712 493.042 37.9472C493.673 36.7568 494.005 35.4309 494.01 34.0836C494.015 32.7364 493.692 31.4081 493.07 30.2132C492.462 29.0925 491.567 28.1537 490.477 27.4932C489.475 26.9092 488.35 26.5678 487.192 26.4961C486.035 26.4244 484.876 26.6244 483.81 27.0802C482.926 27.4714 482.128 28.0324 481.461 28.7312C480.788 29.4305 480.255 30.2528 479.893 31.1532C479.519 32.0861 479.33 33.083 479.337 34.0882C479.323 35.4141 479.646 36.7217 480.277 37.8882C480.89 39.0214 481.788 39.9744 482.884 40.6522C484.018 41.351 485.327 41.7114 486.659 41.6912" fill="#161615"/>
</g>
<defs>
<clipPath id="clip0_281_15">
<rect width="502" height="244" fill="white"/>
</clipPath>
</defs>
</svg>
