<svg width="420" height="235" viewBox="0 0 420 235" fill="none" xmlns="http://www.w3.org/2000/svg">
<path d="M103.632 0.00390625L96.7324 95.6889H150.161L150.934 78.1889L120.811 82.1849L119.791 62.5979L143.533 61.6109L146.02 46.2569L124.465 47.1569L124.024 17.9319L156.524 17.8519L155.501 0.00390625H103.632Z" fill="#161615"/>
<path d="M172.697 0.00390625L174.055 19.8039L204.689 13.7299L207.795 73.4299L192.79 85.7909L178.41 84.7529L181.685 62.5529L164.975 59.2039L163.397 103.032L207.597 101.196L232.985 79.2689L224.722 0.00390625H172.697Z" fill="#161615"/>
<path d="M245.786 0.00390625L248.449 55.1839L298.385 55.8899L299.196 72.9239L249.624 79.2589L247.477 95.6889H326.324L316.982 37.1169L276.089 36.3319L274.936 14.1319L314.8 12.6319L311.895 0.00390625H245.786Z" fill="#161615"/>
<path d="M10.477 131.666L1.994 200.414L0 234.742H22L23.718 201.442L53.056 202.827L54.264 182.353L25.413 180.986L27.833 149.25L71.061 146.25L69.154 131.666H10.477Z" fill="#161615"/>
<path d="M89.2477 234.742L83.0557 131.666H136.466L137.12 150.735L107.027 146.579L108.738 166.293L129.605 167.278L132.88 188.436L106.667 180.488L109.787 211.83L142.287 212.093L141.127 234.742H89.2477Z" fill="#161615"/>
<path d="M163.798 234.742H227.882L230.906 177.063L179.651 171.451L180.57 155.889L232.24 154.461L236.491 131.666H156.653L160.707 188.966L202.78 186.975L201.113 215.22L160.166 213.52L163.798 234.742Z" fill="#161615"/>
<path d="M252.233 131.666L247.319 158.378L287.464 160.427L258.693 234.742H297.676L307.108 160.729L307.478 154.469L334.049 155.723L332.303 131.666H252.233Z" fill="#161615"/>
<path d="M27.1605 30.2859L34.6765 17.6689L58.7115 16.6689L59.4495 30.8689L27.1605 30.2859ZM81.9675 0.00390625L6.56755 1.63591L4.93555 95.6889H34.2825L31.5165 46.8499L56.2515 95.6889L84.5795 84.0039L54.7685 43.3449L72.4825 42.6039L83.9115 34.4429L81.9675 0.00390625Z" fill="#161615"/>
<path d="M339.296 0.572266L334.054 18.2353H342.601L345.108 0.572266H339.296Z" fill="#161615"/>
<path d="M351.005 43.0246V36.7576L366.047 22.6576C367.339 21.4056 368.427 20.2722 369.31 19.2576C370.117 18.3568 370.798 17.3502 371.333 16.2656C371.803 15.2731 372.042 14.1874 372.033 13.0896C372.066 11.9382 371.77 10.8014 371.179 9.81256C370.613 8.90449 369.804 8.17398 368.842 7.70456C367.786 7.19528 366.625 6.94145 365.452 6.96356C364.254 6.9378 363.069 7.21285 362.004 7.76356C361.034 8.27816 360.24 9.07203 359.725 10.0426C359.166 11.1443 358.891 12.3684 358.925 13.6036H350.605C350.546 11.0745 351.205 8.58051 352.505 6.41056C353.771 4.36564 355.595 2.72442 357.761 1.67956C360.178 0.527921 362.83 -0.0455302 365.507 0.0045611C368.216 -0.0563738 370.903 0.493926 373.37 1.61456C375.487 2.58202 377.296 4.11453 378.598 6.04356C379.857 7.9745 380.507 10.2389 380.464 12.5436C380.459 14.1461 380.145 15.7327 379.54 17.2166C378.706 19.097 377.591 20.8402 376.234 22.3866C374.142 24.8162 371.891 27.1048 369.496 29.2376L363.086 35.5626V35.8766H381.035V43.0246H351.005Z" fill="#161615"/>
<path d="M403.712 43.5952C401.585 43.5986 399.474 43.2321 397.473 42.5122C395.432 41.7734 393.585 40.5804 392.073 39.0232C390.354 37.197 389.065 35.0106 388.298 32.6232C387.288 29.447 386.815 26.1249 386.898 22.7932C386.855 19.5625 387.259 16.3413 388.098 13.2212C388.787 10.633 389.956 8.19712 391.544 6.04019C392.966 4.13166 394.822 2.58914 396.959 1.54019C399.166 0.493906 401.583 -0.0312769 404.025 0.00519332C406.589 -0.0462255 409.128 0.514985 411.432 1.64219C413.499 2.66799 415.284 4.18366 416.632 6.05719C417.953 7.91155 418.773 10.0759 419.011 12.3402H410.465C410.162 10.9319 409.371 9.67601 408.232 8.79419C407.017 7.90211 405.538 7.44426 404.032 7.49419C402.311 7.44452 400.632 8.0325 399.318 9.14519C397.935 10.4067 396.933 12.0303 396.425 13.8322C395.735 16.1762 395.408 18.6122 395.457 21.0552H395.741C396.379 19.8303 397.255 18.7454 398.318 17.8642C399.41 16.9613 400.662 16.2705 402.008 15.8272C403.422 15.3567 404.904 15.1203 406.395 15.1272C408.75 15.087 411.071 15.6934 413.105 16.8802C415.07 18.0467 416.68 19.726 417.763 21.7382C418.931 23.9176 419.52 26.3601 419.474 28.8322C419.523 31.5118 418.833 34.1531 417.479 36.4662C416.153 38.6851 414.24 40.4944 411.951 41.6942C409.408 43.0045 406.578 43.6577 403.718 43.5942M403.66 36.6942C404.984 36.7167 406.287 36.3663 407.421 35.6832C408.517 35.0141 409.42 34.0712 410.042 32.9472C410.673 31.7568 411.005 30.4309 411.01 29.0836C411.015 27.7364 410.692 26.4081 410.07 25.2132C409.462 24.0925 408.567 23.1537 407.477 22.4932C406.475 21.9092 405.35 21.5678 404.192 21.4961C403.035 21.4244 401.876 21.6244 400.81 22.0802C399.926 22.4714 399.128 23.0324 398.461 23.7312C397.788 24.4305 397.255 25.2528 396.893 26.1532C396.519 27.0861 396.33 28.083 396.337 29.0882C396.323 30.4141 396.646 31.7217 397.277 32.8882C397.89 34.0214 398.788 34.9744 399.884 35.6522C401.018 36.351 402.327 36.7114 403.659 36.6912" fill="#161615"/>
</svg>
