<svg width="179" height="171" viewBox="0 0 179 171" fill="none" xmlns="http://www.w3.org/2000/svg">
<path d="M0 170.059L171.027 161.621L178.368 9.673L9.841 0L0 170.059Z" fill="#F9E926"/>
<path d="M95.6883 64.041L22.9443 105.128C22.9443 105.128 33.7213 79.534 49.8873 69.428C66.0533 59.322 95.6873 64.039 95.6873 64.039" fill="white"/>
<path d="M95.6875 59.2295L166.374 77.5775C166.374 77.5775 150.152 51.7245 135.974 47.9715C121.796 44.2185 95.6865 59.2295 95.6865 59.2295" fill="white"/>
<path d="M92.1917 60.4811L20.4717 55.4811C20.4717 55.4811 45.4907 41.7201 61.7527 42.5561C78.0147 43.3921 92.1917 60.4811 92.1917 60.4811Z" fill="white"/>
<path d="M93.7432 57.5511L149.002 18.0391C149.002 18.0391 116.933 19.1851 106.34 27.2011C95.7472 35.2171 93.7402 57.5521 93.7402 57.5521" fill="white"/>
<path d="M92.1924 72.091L100.935 65.791L121.372 84.034L135.581 107.785L142.404 144.006L146.079 170.059H119.134L121.372 133.506L119.134 105.126L107.759 84.035L92.1924 72.091Z" fill="white"/>
</svg>
