<svg width="335" height="235" viewBox="0 0 335 235" fill="none" xmlns="http://www.w3.org/2000/svg">
<path d="M103.632 0L96.7324 95.685H150.161L150.934 78.185L120.811 82.181L119.791 62.594L143.533 61.607L146.02 46.253L124.465 47.153L124.024 17.928L156.524 17.848L155.501 0H103.632Z" fill="#161615"/>
<path d="M172.697 0L174.055 19.8L204.689 13.726L207.795 73.426L192.79 85.787L178.41 84.749L181.685 62.549L164.975 59.2L163.397 103.028L207.597 101.192L232.985 79.265L224.722 0H172.697Z" fill="#161615"/>
<path d="M245.786 0L248.449 55.18L298.385 55.886L299.196 72.92L249.624 79.255L247.477 95.685H326.324L316.982 37.113L276.089 36.328L274.936 14.128L314.8 12.628L311.895 0H245.786Z" fill="#161615"/>
<path d="M10.477 131.662L1.994 200.41L0 234.738H22L23.718 201.438L53.056 202.823L54.264 182.349L25.413 180.982L27.833 149.246L71.061 146.246L69.154 131.662H10.477Z" fill="#161615"/>
<path d="M89.2477 234.738L83.0557 131.662H136.466L137.12 150.731L107.027 146.575L108.738 166.289L129.605 167.274L132.88 188.432L106.667 180.484L109.787 211.826L142.287 212.089L141.127 234.738H89.2477Z" fill="#161615"/>
<path d="M163.798 234.738H227.882L230.906 177.059L179.651 171.447L180.57 155.885L232.24 154.457L236.491 131.662H156.653L160.707 188.962L202.78 186.971L201.113 215.216L160.166 213.516L163.798 234.738Z" fill="#161615"/>
<path d="M252.233 131.662L247.319 158.374L287.464 160.423L258.693 234.738H297.676L307.108 160.725L307.478 154.465L334.049 155.719L332.303 131.662H252.233Z" fill="#161615"/>
<path d="M27.1605 30.282L34.6765 17.665L58.7115 16.665L59.4495 30.865L27.1605 30.282ZM81.9675 0L6.56755 1.632L4.93555 95.685H34.2825L31.5165 46.846L56.2515 95.685L84.5795 84L54.7685 43.341L72.4825 42.6L83.9115 34.439L81.9675 0Z" fill="#161615"/>
</svg>
