<svg width="179" height="164" viewBox="0 0 179 164" fill="none" xmlns="http://www.w3.org/2000/svg">
<path d="M0.192383 146.408L161.237 163.708L178.537 0H10.8374L0.192383 146.408Z" fill="#9DA0D0"/>
<path d="M2.10156 57.9865C2.10156 57.9865 6.78656 38.2105 28.9376 38.2955C48.9296 38.3735 45.5966 59.6205 45.5966 59.6205L87.0346 56.0665C87.0346 56.0665 91.1346 33.8535 112.235 33.8535C133.335 33.8535 139.556 54.7335 139.556 54.7335L173.763 56.0655L175.549 56.0535C175.549 56.0535 176.534 80.6885 157.431 80.6885C138.328 80.6885 138.719 55.2095 138.719 55.2095L87.8746 56.1705C87.8746 56.1705 88.5806 75.8785 72.8106 77.8335C46.5196 81.0915 45.5976 59.6245 45.5976 59.6245L2.10156 57.9865Z" fill="white"/>
<path d="M173.457 105.73C173.457 105.73 168.777 125.503 146.621 125.42C126.629 125.342 129.961 104.095 129.961 104.095L88.5226 107.649C88.5226 107.649 84.4226 129.862 63.3226 129.862C42.2226 129.862 36.0016 108.982 36.0016 108.982L1.7946 107.65L0.00860819 107.664C0.00860819 107.664 -0.976389 83.0273 18.1266 83.0273C37.2296 83.0273 36.8386 108.503 36.8386 108.503L87.6826 107.542C87.6826 107.542 86.9766 87.8373 102.747 85.8823C129.039 82.6243 129.961 104.095 129.961 104.095L173.457 105.73Z" fill="white"/>
</svg>
