<svg width="34" height="24" viewBox="0 0 34 24" fill="none" xmlns="http://www.w3.org/2000/svg">
<rect width="34" height="24" rx="4" fill="#0a1628"/>
<path d="M10.3848 0L9.69336 9.58848H15.0474L15.1249 7.83482L12.1063 8.23526L12.0041 6.27247L14.3832 6.17356L14.6324 4.63496L12.4724 4.72514L12.4283 1.79654L15.685 1.78853L15.5825 0H10.3848Z" fill="white"/>
<path d="M17.306 0L17.442 1.98413L20.5118 1.37547L20.8231 7.35793L19.3195 8.59661L17.8785 8.49259L18.2066 6.26796L16.5322 5.93236L16.374 10.3243L20.8033 10.1403L23.3474 7.94305L22.5193 0H17.306Z" fill="white"/>
<path d="M24.6299 0L24.8967 5.52952L29.9008 5.60027L29.982 7.30722L25.0145 7.94205L24.7993 9.58848H32.7005L31.7643 3.71905L27.6665 3.64038L27.551 1.41575L31.5457 1.26544L31.2546 0H24.6299Z" fill="white"/>
<path d="M1.04989 13.1934L0.199816 20.0825L0 23.5225H2.20459L2.37675 20.1855L5.31668 20.3243L5.43773 18.2726L2.54661 18.1357L2.78911 14.9554L7.12093 14.6548L6.92984 13.1934H1.04989Z" fill="white"/>
<path d="M8.94373 23.5225L8.32324 13.1934H13.6754L13.7409 15.1042L10.7253 14.6878L10.8968 16.6633L12.9879 16.762L13.316 18.8822L10.6893 18.0858L11.0019 21.2265L14.2587 21.2529L14.1425 23.5225H8.94373Z" fill="white"/>
<path d="M16.4142 23.5225H22.836L23.139 17.7425L18.0028 17.1802L18.0949 15.6207L23.2727 15.4776L23.6987 13.1934H15.6982L16.1045 18.9353L20.3206 18.7358L20.1535 21.5662L16.0503 21.3958L16.4142 23.5225Z" fill="white"/>
<path d="M25.2756 13.1934L24.7832 15.8701L28.8061 16.0755L25.923 23.5225H29.8294L30.7746 16.1057L30.8117 15.4784L33.4743 15.6041L33.2993 13.1934H25.2756Z" fill="white"/>
<path d="M2.72226 3.03452L3.47543 1.77019L5.88394 1.66998L5.9579 3.09294L2.72226 3.03452ZM8.2144 0L0.658658 0.163541L0.495117 9.58848H3.43594L3.15877 4.69438L5.63743 9.58848L8.47614 8.41754L5.48882 4.34315L7.26392 4.26889L8.4092 3.45109L8.2144 0Z" fill="white"/>
</svg>
